<svg xmlns="http://www.w3.org/2000/svg" version="1.1" xmlns:xlink="http://www.w3.org/1999/xlink" xmlns:svgjs="http://svgjs.com/svgjs" width="512" height="512" x="0" y="0" viewBox="0 0 450 450" style="enable-background:new 0 0 512 512" xml:space="preserve" class=""><g><path d="M137.717 371.952c-5.523 0-10-4.478-10-10V25c0-5.523 4.477-10 10-10s10 4.477 10 10v336.952c0 5.523-4.477 10-10 10z" fill="#000000" data-original="#000000" class=""></path><path d="M69.863 126.666a9.961 9.961 0 0 1-5.941-1.962c-4.439-3.286-5.375-9.548-2.089-13.987l67.847-91.666a10 10 0 0 1 16.076 0l67.847 91.666c3.286 4.439 2.351 10.701-2.088 13.987-4.438 3.287-10.701 2.352-13.987-2.088L137.719 41.81l-59.808 80.806a9.995 9.995 0 0 1-8.048 4.05zM312.283 435c-5.522 0-10-4.478-10-10V88.048c0-5.523 4.478-10 10-10s10 4.477 10 10V425c0 5.522-4.477 10-10 10z" fill="#000000" data-original="#000000" class=""></path><path d="M312.283 435a10 10 0 0 1-8.038-4.051l-67.847-91.666c-3.285-4.439-2.351-10.701 2.089-13.987 4.438-3.286 10.7-2.353 13.987 2.089l59.809 80.807 59.808-80.807c3.286-4.441 9.548-5.375 13.987-2.089s5.374 9.548 2.089 13.987l-67.846 91.666a9.999 9.999 0 0 1-8.038 4.051z" fill="#000000" data-original="#000000" class=""></path></g></svg>
